<svg id="visual" viewBox="0 0 960 540" width="960" height="540" xmlns="http://www.w3.org/2000/svg" xmlns:xlink="http://www.w3.org/1999/xlink" version="1.1"><path d="M498 540L498.5 527.2C499 514.3 500 488.7 504.2 463C508.3 437.3 515.7 411.7 518.7 386C521.7 360.3 520.3 334.7 513.5 308.8C506.7 283 494.3 257 489.5 231.2C484.7 205.3 487.3 179.7 510 154C532.7 128.3 575.3 102.7 591.5 77C607.7 51.3 597.3 25.7 592.2 12.8L587 0L960 0L960 12.8C960 25.7 960 51.3 960 77C960 102.7 960 128.3 960 154C960 179.7 960 205.3 960 231.2C960 257 960 283 960 308.8C960 334.7 960 360.3 960 386C960 411.7 960 437.3 960 463C960 488.7 960 514.3 960 527.2L960 540Z" fill="#f7770f"></path><path d="M668 540L677.5 527.2C687 514.3 706 488.7 692.2 463C678.3 437.3 631.7 411.7 619.2 386C606.7 360.3 628.3 334.7 627.7 308.8C627 283 604 257 605.2 231.2C606.3 205.3 631.7 179.7 646.8 154C662 128.3 667 102.7 659 77C651 51.3 630 25.7 619.5 12.8L609 0L960 0L960 12.8C960 25.7 960 51.3 960 77C960 102.7 960 128.3 960 154C960 179.7 960 205.3 960 231.2C960 257 960 283 960 308.8C960 334.7 960 360.3 960 386C960 411.7 960 437.3 960 463C960 488.7 960 514.3 960 527.2L960 540Z" fill="#f98619"></path><path d="M771 540L753.7 527.2C736.3 514.3 701.7 488.7 701.2 463C700.7 437.3 734.3 411.7 741.5 386C748.7 360.3 729.3 334.7 730 308.8C730.7 283 751.3 257 746.5 231.2C741.7 205.3 711.3 179.7 704.3 154C697.3 128.3 713.7 102.7 717.5 77C721.3 51.3 712.7 25.7 708.3 12.8L704 0L960 0L960 12.8C960 25.7 960 51.3 960 77C960 102.7 960 128.3 960 154C960 179.7 960 205.3 960 231.2C960 257 960 283 960 308.8C960 334.7 960 360.3 960 386C960 411.7 960 437.3 960 463C960 488.7 960 514.3 960 527.2L960 540Z" fill="#fa9424"></path><path d="M830 540L830.2 527.2C830.3 514.3 830.7 488.7 824.3 463C818 437.3 805 411.7 794.3 386C783.7 360.3 775.3 334.7 774.2 308.8C773 283 779 257 780.5 231.2C782 205.3 779 179.7 772.8 154C766.7 128.3 757.3 102.7 756.7 77C756 51.3 764 25.7 768 12.8L772 0L960 0L960 12.8C960 25.7 960 51.3 960 77C960 102.7 960 128.3 960 154C960 179.7 960 205.3 960 231.2C960 257 960 283 960 308.8C960 334.7 960 360.3 960 386C960 411.7 960 437.3 960 463C960 488.7 960 514.3 960 527.2L960 540Z" fill="#fba230"></path><path d="M842 540L849 527.2C856 514.3 870 488.7 877.5 463C885 437.3 886 411.7 885.2 386C884.3 360.3 881.7 334.7 871.8 308.8C862 283 845 257 847.5 231.2C850 205.3 872 179.7 881.2 154C890.3 128.3 886.7 102.7 886.7 77C886.7 51.3 890.3 25.7 892.2 12.8L894 0L960 0L960 12.8C960 25.7 960 51.3 960 77C960 102.7 960 128.3 960 154C960 179.7 960 205.3 960 231.2C960 257 960 283 960 308.8C960 334.7 960 360.3 960 386C960 411.7 960 437.3 960 463C960 488.7 960 514.3 960 527.2L960 540Z" fill="#fcaf3c"></path></svg>